<svg width="14" height="15" viewBox="0 0 14 15" fill="none" xmlns="http://www.w3.org/2000/svg">
<path d="M7 14.5C10.866 14.5 14 11.366 14 7.5C14 3.63401 10.866 0.5 7 0.5C3.13401 0.5 0 3.63401 0 7.5C0 11.366 3.13401 14.5 7 14.5Z" fill="#2346FA"/>
<path d="M4.19999 6.97499H3.67499V8.02499H4.19999V6.97499ZM9.79999 8.02499H10.325V6.97499H9.79999V8.02499ZM7.52499 4.69999V4.17499H6.47499V4.69999H7.52499ZM6.47499 10.3V10.825H7.52499V10.3H6.47499ZM4.19999 8.02499H9.79999V6.97499H4.19999V8.02499ZM6.47499 4.69999V10.3H7.52499V4.69999H6.47499Z" fill="white"/>
</svg>
