<svg width="24" height="24" viewBox="0 0 24 24" fill="none" xmlns="http://www.w3.org/2000/svg">
<path fill-rule="evenodd" clip-rule="evenodd" d="M14.4001 4.7998H9.6001V5.9998H14.4001V4.7998ZM15.2001 17.1998H8.8001C8.69401 17.1998 8.59227 17.1577 8.51726 17.0826C8.44224 17.0076 8.4001 16.9059 8.4001 16.7998V10.3998H7.2001V16.7998C7.2001 17.2242 7.36867 17.6311 7.66873 17.9312C7.96879 18.2312 8.37575 18.3998 8.8001 18.3998H15.2001C15.6244 18.3998 16.0314 18.2312 16.3315 17.9312C16.6315 17.6311 16.8001 17.2242 16.8001 16.7998V10.3998H15.6001V16.7998C15.6001 16.9059 15.558 17.0076 15.4829 17.0826C15.4079 17.1577 15.3062 17.1998 15.2001 17.1998ZM18.4001 7.5998H5.6001V8.7998H18.4001V7.5998Z" fill="white"/>
</svg>
