<svg width="96" height="76" viewBox="0 0 96 76" fill="none" xmlns="http://www.w3.org/2000/svg">
<path fill-rule="evenodd" clip-rule="evenodd" d="M9.31616 73.2873C9.31703 74.0001 9.60072 74.6833 10.1049 75.1871C10.6091 75.6909 11.2926 75.9741 12.0054 75.9743H63.1053V22.1885H9.31616V73.2873ZM12.0054 75.3045H62.4333V22.8605H9.9893V73.2873C9.9893 73.8221 10.2017 74.335 10.5797 74.7133C10.9578 75.0916 11.4706 75.3042 12.0054 75.3045Z" fill="#9C9C9C"/>
<path fill-rule="evenodd" clip-rule="evenodd" d="M44.6152 66.9007H27.4695V66.2275H44.6152V66.9007Z" fill="#9C9C9C"/>
<path fill-rule="evenodd" clip-rule="evenodd" d="M0.175563 48.4123L9.33479 22.4116C9.36087 22.3367 9.41263 22.2734 9.48091 22.2329C9.54919 22.1925 9.62957 22.1775 9.70783 22.1907C9.78609 22.2038 9.85716 22.2443 9.90847 22.3048C9.95978 22.3653 9.988 22.4421 9.98815 22.5214V52.1085C9.98815 52.1528 9.97943 52.1965 9.96247 52.2374C9.94552 52.2782 9.92067 52.3153 9.88935 52.3465C9.85803 52.3777 9.82086 52.4025 9.77996 52.4193C9.73907 52.4361 9.69526 52.4447 9.65104 52.4446H3.02842C2.54447 52.4457 2.06738 52.3302 1.63751 52.1079C1.20764 51.8856 0.837631 51.563 0.558798 51.1675C0.285123 50.7834 0.10569 50.3402 0.0350071 49.8739C-0.0410489 49.3826 0.00727622 48.8801 0.175563 48.4123ZM0.809164 48.632C0.684168 48.9868 0.646073 49.3665 0.698071 49.7391C0.750069 50.1117 0.890644 50.4664 1.10801 50.7734C1.32538 51.0805 1.6132 51.331 1.94734 51.5039C2.28148 51.6767 2.6522 51.767 3.02842 51.767H9.31502V24.4903L0.809164 48.632Z" fill="#9C9C9C"/>
<mask id="path-4-inside-1_1674_1175" fill="white">
<path fill-rule="evenodd" clip-rule="evenodd" d="M62.4329 22.1882H85.9651V73.2871C85.9651 74.0004 85.6818 74.6845 85.1775 75.189C84.6732 75.6935 83.9892 75.9771 83.2758 75.9774H62.4329V22.1882ZM63.1049 22.8603H85.2952V73.2871C85.2952 73.8221 85.0827 74.3351 84.7044 74.7134C84.3261 75.0917 83.813 75.3043 83.278 75.3043H63.1049V22.8603Z"/>
</mask>
<path fill-rule="evenodd" clip-rule="evenodd" d="M62.4329 22.1882H85.9651V73.2871C85.9651 74.0004 85.6818 74.6845 85.1775 75.189C84.6732 75.6935 83.9892 75.9771 83.2758 75.9774H62.4329V22.1882ZM63.1049 22.8603H85.2952V73.2871C85.2952 73.8221 85.0827 74.3351 84.7044 74.7134C84.3261 75.0917 83.813 75.3043 83.278 75.3043H63.1049V22.8603Z" fill="#181A1F"/>
<path d="M62.4329 22.1882V21.4382H61.6829V22.1882H62.4329ZM85.9651 22.1882H86.7151V21.4382H85.9651V22.1882ZM85.9651 73.2871H85.2151H85.9651ZM83.2758 75.9774V76.7274H83.2761L83.2758 75.9774ZM62.4329 75.9774H61.6829V76.7274H62.4329V75.9774ZM63.1049 22.8603V22.1103H62.3549V22.8603H63.1049ZM85.2952 22.8603H86.0452V22.1103H85.2952V22.8603ZM63.1049 75.3043H62.3549V76.0543H63.1049V75.3043ZM62.4329 22.9382H85.9651V21.4382H62.4329V22.9382ZM85.2151 22.1882V73.2871H86.7151V22.1882H85.2151ZM85.2151 73.2871C85.2151 73.8015 85.0107 74.2949 84.647 74.6588L85.7079 75.7193C86.3528 75.0741 86.7151 74.1993 86.7151 73.2871H85.2151ZM84.647 74.6588C84.2833 75.0227 83.79 75.2272 83.2755 75.2274L83.2761 76.7274C84.1883 76.727 85.063 76.3644 85.7079 75.7193L84.647 74.6588ZM83.2758 75.2274H62.4329V76.7274H83.2758V75.2274ZM63.1829 75.9774V22.1882H61.6829V75.9774H63.1829ZM63.1049 23.6103H85.2952V22.1103H63.1049V23.6103ZM84.5452 22.8603V73.2871H86.0452V22.8603H84.5452ZM84.5452 73.2871C84.5452 73.6232 84.4117 73.9455 84.1741 74.1831L85.2347 75.2438C85.7537 74.7248 86.0452 74.021 86.0452 73.2871H84.5452ZM84.1741 74.1831C83.9364 74.4208 83.6141 74.5543 83.278 74.5543V76.0543C84.0119 76.0543 84.7158 75.7627 85.2347 75.2438L84.1741 74.1831ZM83.278 74.5543H63.1049V76.0543H83.278V74.5543ZM63.8549 75.3043V22.8603H62.3549V75.3043H63.8549Z" fill="#9C9C9C" mask="url(#path-4-inside-1_1674_1175)"/>
<path fill-rule="evenodd" clip-rule="evenodd" d="M85.9651 22.1882H62.4329L62.6711 22.8603L72.554 50.6553C72.74 51.1787 73.0835 51.6317 73.5373 51.952C73.9911 52.2723 74.533 52.4442 75.0884 52.4441H92.9127C93.3434 52.444 93.7677 52.3406 94.1501 52.1424C94.5324 51.9442 94.8616 51.657 95.1098 51.3051C95.3581 50.9532 95.5182 50.5469 95.5767 50.1202C95.6352 49.6935 95.5904 49.2591 95.446 48.8533L85.9651 22.1882ZM94.5599 50.9177C94.7549 50.6581 94.8804 50.3531 94.9246 50.0314C94.9688 49.7097 94.9302 49.3821 94.8124 49.0795L85.4907 22.8603H63.3849L73.1876 50.4302C73.3271 50.8228 73.5847 51.1625 73.9251 51.4028C74.2654 51.6431 74.6718 51.7721 75.0884 51.772H92.9127C93.2373 51.7814 93.5588 51.7079 93.847 51.5584C94.1352 51.4089 94.3806 51.1884 94.5599 50.9177Z" fill="#9C9C9C"/>
<path d="M70.5014 11.7679C72.5439 11.7679 74.1998 10.112 74.1998 8.06948C74.1998 6.02692 72.5439 4.37109 70.5014 4.37109C68.4588 4.37109 66.803 6.02692 66.803 8.06948C66.803 10.112 68.4588 11.7679 70.5014 11.7679Z" stroke="#9C9C9C" stroke-width="0.10981"/>
<path d="M17.7207 4.70644C19.0203 4.70644 20.0739 3.65287 20.0739 2.35322C20.0739 1.05357 19.0203 0 17.7207 0C16.421 0 15.3674 1.05357 15.3674 2.35322C15.3674 3.65287 16.421 4.70644 17.7207 4.70644Z" fill="#5E4CF1"/>
<path d="M42.2619 17.4818C43.0048 17.4818 43.6071 16.8796 43.6071 16.1367C43.6071 15.3938 43.0048 14.7915 42.2619 14.7915C41.519 14.7915 40.9167 15.3938 40.9167 16.1367C40.9167 16.8796 41.519 17.4818 42.2619 17.4818Z" fill="#5E4CF1"/>
</svg>
