<svg width="14" height="14" viewBox="0 0 14 14" fill="none" xmlns="http://www.w3.org/2000/svg">
<path fill-rule="evenodd" clip-rule="evenodd" d="M9.625 1.3125C9.86662 1.3125 10.0625 1.50838 10.0625 1.75V3.9375H12.25C12.4916 3.9375 12.6875 4.13338 12.6875 4.375C12.6875 4.61662 12.4916 4.8125 12.25 4.8125H9.625C9.38338 4.8125 9.1875 4.61662 9.1875 4.375V1.75C9.1875 1.50838 9.38338 1.3125 9.625 1.3125Z" fill="white"/>
<path fill-rule="evenodd" clip-rule="evenodd" d="M4.375 1.3125C4.61662 1.3125 4.8125 1.50838 4.8125 1.75V4.375C4.8125 4.61662 4.61662 4.8125 4.375 4.8125H1.75C1.50838 4.8125 1.3125 4.61662 1.3125 4.375C1.3125 4.13338 1.50838 3.9375 1.75 3.9375H3.9375V1.75C3.9375 1.50838 4.13338 1.3125 4.375 1.3125Z" fill="white"/>
<path fill-rule="evenodd" clip-rule="evenodd" d="M1.3125 9.625C1.3125 9.38338 1.50838 9.1875 1.75 9.1875H4.375C4.61662 9.1875 4.8125 9.38338 4.8125 9.625V12.25C4.8125 12.4916 4.61662 12.6875 4.375 12.6875C4.13338 12.6875 3.9375 12.4916 3.9375 12.25V10.0625H1.75C1.50838 10.0625 1.3125 9.86662 1.3125 9.625Z" fill="white"/>
<path fill-rule="evenodd" clip-rule="evenodd" d="M9.1875 9.625C9.1875 9.38338 9.38338 9.1875 9.625 9.1875H12.2207C12.4623 9.1875 12.6582 9.38338 12.6582 9.625C12.6582 9.86662 12.4623 10.0625 12.2207 10.0625H10.0625V12.25C10.0625 12.4916 9.86662 12.6875 9.625 12.6875C9.38338 12.6875 9.1875 12.4916 9.1875 12.25V9.625Z" fill="white"/>
</svg>
