<svg width="20" height="21" viewBox="0 0 20 21" fill="none" xmlns="http://www.w3.org/2000/svg">
<path fill-rule="evenodd" clip-rule="evenodd" d="M9.99984 1.59033C5.05228 1.59033 1.0415 5.60111 1.0415 10.5487C1.0415 15.4962 5.05228 19.507 9.99984 19.507C14.9424 19.507 18.9501 15.5042 18.9582 10.5635C18.962 10.3986 18.9011 10.2325 18.7753 10.1067L10.4419 1.77339C10.3199 1.65133 10.1599 1.59031 9.99992 1.59033C9.99989 1.59033 9.99986 1.59033 9.99984 1.59033ZM10.3328 3.43198C10.282 3.73055 10.2418 4.08183 10.2341 4.46741C10.2103 5.65922 10.4948 7.15034 11.7078 8.45672C12.9074 9.7486 14.49 10.1358 15.8298 10.1845C16.2779 10.2008 16.6915 10.1787 17.0429 10.1421L10.3328 3.43198ZM15.7844 11.4337C16.5318 11.4608 17.1907 11.3953 17.6699 11.3212C17.2824 15.2157 13.9963 18.257 9.99984 18.257C5.74264 18.257 2.2915 14.8059 2.2915 10.5487C2.2915 6.57352 5.30049 3.30117 9.16506 2.88501C9.07728 3.29679 8.99654 3.83212 8.98434 4.44242C8.95609 5.85478 9.29657 7.69699 10.7918 9.30728C12.3006 10.9321 14.2596 11.3782 15.7844 11.4337Z" fill="white" fill-opacity="1"/>
</svg>
