<svg width="20" height="20" viewBox="0 0 20 20" fill="none" xmlns="http://www.w3.org/2000/svg">
<path fill-rule="evenodd" clip-rule="evenodd" d="M1.04175 10C1.04175 5.05247 5.05253 1.04169 10.0001 1.04169C14.9476 1.04169 18.9584 5.05247 18.9584 10C18.9584 14.9476 14.9476 18.9584 10.0001 18.9584C5.05253 18.9584 1.04175 14.9476 1.04175 10ZM10.0001 2.29169C5.74288 2.29169 2.29175 5.74282 2.29175 10C2.29175 14.2572 5.74288 17.7084 10.0001 17.7084C14.2573 17.7084 17.7084 14.2572 17.7084 10C17.7084 5.74282 14.2573 2.29169 10.0001 2.29169Z" fill="white"/>
<path fill-rule="evenodd" clip-rule="evenodd" d="M7.91675 6.875C8.26193 6.875 8.54175 7.15482 8.54175 7.5V12.5C8.54175 12.8452 8.26193 13.125 7.91675 13.125C7.57157 13.125 7.29175 12.8452 7.29175 12.5V7.5C7.29175 7.15482 7.57157 6.875 7.91675 6.875Z" fill="white"/>
<path fill-rule="evenodd" clip-rule="evenodd" d="M12.0833 6.875C12.4284 6.875 12.7083 7.15482 12.7083 7.5V12.5C12.7083 12.8452 12.4284 13.125 12.0833 13.125C11.7381 13.125 11.4583 12.8452 11.4583 12.5V7.5C11.4583 7.15482 11.7381 6.875 12.0833 6.875Z" fill="white"/>
</svg>
