<svg width="24" height="24" viewBox="0 0 24 24" fill="none" xmlns="http://www.w3.org/2000/svg">
<path d="M9.2201 11.0001H8.8001L5.6001 7.8001L8.8001 4.6001H9.2201V7.2001H14.0001C15.3792 7.2001 16.7019 7.74795 17.6771 8.72314C18.6522 9.69833 19.2001 11.021 19.2001 12.4001C19.2001 13.7792 18.6522 15.1019 17.6771 16.0771C16.7019 17.0522 15.3792 17.6001 14.0001 17.6001H8.0001V16.4001H14.0001C15.061 16.4001 16.0784 15.9787 16.8285 15.2285C17.5787 14.4784 18.0001 13.461 18.0001 12.4001C18.0001 11.3392 17.5787 10.3218 16.8285 9.57167C16.0784 8.82153 15.061 8.4001 14.0001 8.4001H9.2201V11.0001Z" fill="#fff"/>
</svg>
