<svg width="24" height="24" viewBox="0 0 24 24" fill="none" xmlns="http://www.w3.org/2000/svg">
<path d="M6.3999 18.4001H8.7999C9.22425 18.4001 9.63122 18.2315 9.93127 17.9315C10.2313 17.6314 10.3999 17.2244 10.3999 16.8001V7.2001C10.3999 6.77575 10.2313 6.36878 9.93127 6.06873C9.63122 5.76867 9.22425 5.6001 8.7999 5.6001H6.3999V6.8001H8.7999C8.90599 6.8001 9.00773 6.84224 9.08275 6.91726C9.15776 6.99227 9.1999 7.09401 9.1999 7.2001V16.8001C9.1999 16.9062 9.15776 17.0079 9.08275 17.0829C9.00773 17.158 8.90599 17.2001 8.7999 17.2001H6.3999V18.4001ZM17.5999 5.6001H15.1999C14.7756 5.6001 14.3686 5.76867 14.0685 6.06873C13.7685 6.36878 13.5999 6.77575 13.5999 7.2001V16.8001C13.5999 17.2244 13.7685 17.6314 14.0685 17.9315C14.3686 18.2315 14.7756 18.4001 15.1999 18.4001H17.5999V17.2001H15.1999C15.0938 17.2001 14.9921 17.158 14.9171 17.0829C14.842 17.0079 14.7999 16.9062 14.7999 16.8001V7.2001C14.7999 7.09401 14.842 6.99227 14.9171 6.91726C14.9921 6.84224 15.0938 6.8001 15.1999 6.8001H17.5999V5.6001Z" fill="white" fill-opacity="1"/>
</svg>
