<svg width="24" height="24" viewBox="0 0 24 24" fill="none" xmlns="http://www.w3.org/2000/svg">
<path d="M14.78 11.0001H15.2L18.4 7.8001L15.2 4.6001H14.78V7.2001H10C8.62092 7.2001 7.29828 7.74795 6.32309 8.72314C5.3479 9.69833 4.80005 11.021 4.80005 12.4001C4.80005 13.7792 5.3479 15.1019 6.32309 16.0771C7.29828 17.0522 8.62092 17.6001 10 17.6001H16V16.4001H10C8.93918 16.4001 7.92177 15.9787 7.17162 15.2285C6.42148 14.4784 6.00005 13.461 6.00005 12.4001C6.00005 11.3392 6.42148 10.3218 7.17162 9.57167C7.92177 8.82153 8.93918 8.4001 10 8.4001H14.78V11.0001Z" fill="white" fill-opacity="1"/>
</svg>
